<svg viewBox="0 0 40 14" fill="none" xmlns="http://www.w3.org/2000/svg">
<path d="M14.5176 2.46875H15.9121L18.2441 8.89063L20.5703 2.46875H21.9707L18.8008 11H17.6816L14.5176 2.46875ZM13.8144 2.46875H15.1797L15.4258 8.36914V11H13.8144V2.46875ZM21.3027 2.46875H22.6738V11H21.0625V8.36914L21.3027 2.46875Z" fill="black"/>
<path d="M27.0449 11.1172C26.5644 11.1172 26.1328 11.0391 25.75 10.8828C25.3672 10.7266 25.041 10.5098 24.7715 10.2324C24.5059 9.95118 24.3008 9.625 24.1562 9.25391C24.0156 8.87891 23.9453 8.47657 23.9453 8.04688V7.8125C23.9453 7.32422 24.0156 6.88086 24.1562 6.48243C24.2969 6.08008 24.4961 5.73438 24.7539 5.44532C25.0117 5.15625 25.3203 4.9336 25.6797 4.77735C26.0391 4.6211 26.4355 4.54297 26.8691 4.54297C27.3184 4.54297 27.7148 4.61914 28.0586 4.77149C28.4023 4.91993 28.6894 5.13086 28.9199 5.4043C29.1504 5.67774 29.3242 6.00586 29.4414 6.38868C29.5586 6.76758 29.6172 7.1875 29.6172 7.64844V8.29883H24.6484V7.23243H28.0937V7.11524C28.0859 6.86914 28.0391 6.64453 27.9531 6.44141C27.8672 6.23438 27.7344 6.07032 27.5547 5.94922C27.375 5.82422 27.1426 5.76172 26.8574 5.76172C26.6269 5.76172 26.4258 5.8125 26.2539 5.91407C26.0859 6.01172 25.9453 6.15235 25.832 6.33594C25.7227 6.51563 25.6406 6.73047 25.5859 6.98047C25.5312 7.23047 25.5039 7.50782 25.5039 7.8125V8.04688C25.5039 8.3125 25.5391 8.5586 25.6094 8.78516C25.6836 9.01172 25.791 9.20899 25.9316 9.37696C26.0762 9.54102 26.248 9.66993 26.4473 9.76368C26.6504 9.85352 26.8809 9.89844 27.1387 9.89844C27.4629 9.89844 27.7559 9.83594 28.0176 9.71094C28.2832 9.58204 28.5137 9.39258 28.709 9.14258L29.4883 9.95118C29.3555 10.1465 29.1758 10.334 28.9492 10.5137C28.7266 10.6934 28.457 10.8398 28.1406 10.9531C27.8242 11.0625 27.459 11.1172 27.0449 11.1172Z" fill="black"/>
<path d="M32.2949 2V11H30.7422V2H32.2949Z" fill="black"/>
<path d="M35.3184 5.87891V13.4375H33.7656V4.66016H35.2012L35.3184 5.87891ZM39.3906 7.76563V7.88868C39.3906 8.34961 39.3359 8.77735 39.2266 9.17188C39.1211 9.5625 38.9648 9.9043 38.7578 10.1973C38.5508 10.4863 38.293 10.7129 37.9844 10.877C37.6797 11.0371 37.3281 11.1172 36.9297 11.1172C36.5391 11.1172 36.1992 11.043 35.9102 10.8945C35.6211 10.7422 35.3769 10.5273 35.1777 10.25C34.9785 9.97266 34.8184 9.65039 34.6973 9.28321C34.5801 8.91211 34.4922 8.50782 34.4336 8.07032V7.67774C34.4922 7.21289 34.5801 6.79102 34.6973 6.41211C34.8184 6.0293 34.9785 5.69922 35.1777 5.42188C35.3769 5.14063 35.6191 4.92383 35.9043 4.77149C36.1934 4.61914 36.5312 4.54297 36.918 4.54297C37.3203 4.54297 37.6738 4.61914 37.9785 4.77149C38.2871 4.92383 38.5469 5.14258 38.7578 5.42774C38.9687 5.71289 39.1269 6.05274 39.2324 6.44727C39.3379 6.8418 39.3906 7.28125 39.3906 7.76563ZM37.8379 7.88868V7.76563C37.8379 7.48438 37.8125 7.22461 37.7617 6.98633C37.7109 6.74414 37.6328 6.53321 37.5273 6.35352C37.4219 6.16993 37.2852 6.02735 37.1172 5.92578C36.9492 5.82422 36.7461 5.77344 36.5078 5.77344C36.2695 5.77344 36.0644 5.8125 35.8926 5.89063C35.7207 5.96875 35.5801 6.08008 35.4707 6.22461C35.3613 6.36914 35.2754 6.54102 35.2129 6.74024C35.1543 6.93555 35.1152 7.15235 35.0957 7.39063V8.36328C35.1309 8.65235 35.1992 8.91211 35.3008 9.14258C35.4023 9.37305 35.5508 9.55664 35.7461 9.69336C35.9453 9.83008 36.2031 9.89844 36.5195 9.89844C36.7578 9.89844 36.9609 9.84571 37.1289 9.74024C37.2969 9.63477 37.4336 9.49024 37.5391 9.30664C37.6445 9.11914 37.7207 8.9043 37.7676 8.66211C37.8144 8.41993 37.8379 8.16211 37.8379 7.88868Z" fill="black"/>
<path fill-rule="evenodd" clip-rule="evenodd" d="M5.89449 1.75C5.60195 1.74975 5.31318 1.81592 5.04994 1.94352C4.78671 2.07112 4.55588 2.25682 4.37487 2.48663C4.23164 2.66846 3.99446 2.7484 3.77038 2.69038C3.51973 2.62547 3.2586 2.61148 3.00245 2.64924C2.7463 2.687 2.50031 2.77574 2.27905 2.91021C2.05779 3.04469 1.86573 3.22217 1.71425 3.43215C1.56277 3.64214 1.45493 3.88037 1.39711 4.13275C1.3393 4.38514 1.33268 4.64655 1.37765 4.90154C1.42261 5.15653 1.51825 5.39991 1.65891 5.6173C1.79957 5.83468 1.9824 6.02165 2.19657 6.16715C2.41074 6.31266 2.65192 6.41373 2.90583 6.46441C3.17861 6.51885 3.375 6.75831 3.375 7.03646V8.45834H4.25V7.29167C4.25 6.9695 4.51116 6.70834 4.83333 6.70834C5.15549 6.70834 5.41666 6.9695 5.41666 7.29167V8.45834H8.625V7.03617C8.625 6.75735 8.8223 6.51752 9.09589 6.46378C9.35609 6.41266 9.60303 6.30866 9.82139 6.15821C10.0398 6.00776 10.2249 5.81407 10.3653 5.58914C10.5058 5.36421 10.5985 5.11283 10.6379 4.85059C10.6772 4.58835 10.6622 4.32082 10.5939 4.06459C10.5256 3.80837 10.4054 3.56889 10.2408 3.36102C10.0762 3.15314 9.87058 2.98129 9.63681 2.85612C9.40303 2.73094 9.14605 2.65511 8.88177 2.63331C8.61749 2.61152 8.35155 2.64423 8.10044 2.72942C7.86119 2.81058 7.5969 2.72851 7.4457 2.52611C7.26558 2.28498 7.03163 2.08925 6.7625 1.95451C6.49336 1.81977 6.19648 1.74974 5.8955 1.75H5.89449ZM9.79166 11.6667C9.79166 11.9761 9.66875 12.2728 9.44995 12.4916C9.23116 12.7104 8.93441 12.8333 8.625 12.8333H3.375C3.06558 12.8333 2.76883 12.7104 2.55004 12.4916C2.33124 12.2728 2.20833 11.9761 2.20833 11.6667V7.47582C1.97335 7.38891 1.74919 7.27365 1.54096 7.13219C1.19777 6.89903 0.904811 6.59943 0.679416 6.25109C0.454021 5.90275 0.300764 5.51275 0.228708 5.10416C0.156652 4.69556 0.16726 4.27667 0.259905 3.87224C0.35255 3.46782 0.525351 3.08608 0.768089 2.74959C1.01083 2.41311 1.31857 2.12872 1.67313 1.91324C2.02768 1.69775 2.42185 1.55555 2.83231 1.49504C3.12128 1.45245 3.41419 1.45095 3.70242 1.49008C3.94617 1.24654 4.22945 1.04474 4.54105 0.89369C4.96307 0.68912 5.42601 0.583005 5.895 0.583337C6.37747 0.582995 6.85336 0.69529 7.28479 0.911285C7.59509 1.06664 7.87623 1.27256 8.11709 1.51974C8.39962 1.46353 8.68926 1.44681 8.97766 1.47059C9.40114 1.50551 9.81294 1.62703 10.1875 1.82762C10.5621 2.0282 10.8915 2.30358 11.1554 2.63668C11.4192 2.96978 11.6118 3.35351 11.7212 3.76409C11.8307 4.17467 11.8546 4.60336 11.7916 5.02358C11.7286 5.4438 11.58 5.84661 11.3549 6.20704C11.1299 6.56747 10.8332 6.87784 10.4833 7.11892C10.2682 7.26715 10.0357 7.38725 9.79166 7.47681V11.6667ZM3.375 9.625V11.6667H8.625V9.625H3.375Z" fill="black"/>
</svg>
