<svg width="24" height="25" viewBox="0 0 24 25" fill="none" xmlns="http://www.w3.org/2000/svg">
<path d="M12.8192 24.7345H1.32462C0.592836 24.7345 0 24.1232 0 23.3693V1.36515C0 0.611071 0.592929 0 1.32462 0H22.6755C23.407 0 24 0.611071 24 1.36515V23.3693C24 24.1233 23.4069 24.7345 22.6755 24.7345H16.5597V15.156H19.6793L20.1464 11.423H16.5597V9.03977C16.5597 7.959 16.8509 7.22249 18.3546 7.22249L20.2727 7.22162V3.88285C19.9409 3.83736 18.8024 3.73572 17.4778 3.73572C14.7124 3.73572 12.8192 5.47536 12.8192 8.67007V11.423H9.69156V15.156H12.8192V24.7345Z" fill="#352F2F"/>
</svg>
