<svg width="24" height="21" viewBox="0 0 24 21" fill="none" xmlns="http://www.w3.org/2000/svg">
<path d="M24 2.50126C23.1182 2.91514 22.1687 3.19503 21.1727 3.32009C22.1898 2.67694 22.9702 1.65713 23.3379 0.442284C22.3856 1.03779 21.3333 1.47103 20.2092 1.70328C19.3133 0.692399 18.0328 0.0611572 16.6156 0.0611572C13.8982 0.0611572 11.6936 2.39109 11.6936 5.26443C11.6936 5.67236 11.7359 6.06837 11.8204 6.4495C7.72812 6.23214 4.10072 4.16274 1.67072 1.011C1.2467 1.78218 1.0044 2.67694 1.0044 3.62976C1.0044 5.43415 1.87357 7.02715 3.19493 7.96061C2.38915 7.9353 1.62846 7.69858 0.96355 7.3115V7.37552C0.96355 9.89751 2.66103 12.0011 4.91495 12.4776C4.5022 12.5996 4.06691 12.6607 3.61754 12.6607C3.30058 12.6607 2.99067 12.6294 2.69061 12.5684C3.31749 14.6348 5.13471 16.1399 7.29002 16.1801C5.60521 17.5766 3.48089 18.4088 1.17485 18.4088C0.777601 18.4088 0.384575 18.385 0 18.3374C2.17926 19.8113 4.76845 20.6733 7.54781 20.6733C16.6057 20.6733 21.5573 12.7455 21.5573 5.86888C21.5573 5.64258 21.5531 5.41629 21.5446 5.19446C22.5068 4.46049 23.3421 3.5449 24 2.50126Z" fill="#0A142F"/>
</svg>
