<svg width="24" height="19" viewBox="0 0 24 19" fill="none" xmlns="http://www.w3.org/2000/svg">
<path fill-rule="evenodd" clip-rule="evenodd" d="M22.806 1.91417C23.5252 2.67004 23.76 4.38649 23.76 4.38649C23.76 4.38649 24 6.40264 24 8.41802V10.3081C24 12.3242 23.76 14.3396 23.76 14.3396C23.76 14.3396 23.5252 16.056 22.806 16.8119C21.9837 17.7061 21.0719 17.7985 20.5565 17.8507C20.4998 17.8564 20.4479 17.8617 20.4015 17.8675C17.043 18.1197 12 18.1275 12 18.1275C12 18.1275 5.76 18.0683 3.84 17.8768C3.74903 17.8592 3.63876 17.8454 3.51388 17.8299C2.9057 17.7542 1.95113 17.6353 1.19325 16.8119C0.474 16.056 0.24 14.3396 0.24 14.3396C0.24 14.3396 0 12.3242 0 10.3081V8.41802C0 6.40264 0.24 4.38649 0.24 4.38649C0.24 4.38649 0.474 2.67004 1.19325 1.91417C2.0174 1.01875 2.93006 0.927361 3.44548 0.87575C3.50136 0.870154 3.55258 0.865026 3.5985 0.859391C6.957 0.607178 11.9948 0.607178 11.9948 0.607178H12.0052C12.0052 0.607178 17.043 0.607178 20.4015 0.859391C20.4474 0.865034 20.4987 0.870169 20.5546 0.875775C21.0696 0.92739 21.9827 1.01889 22.806 1.91417ZM9.52124 5.59924L9.52199 12.5982L16.0057 9.11078L9.52124 5.59924Z" fill="#0A142F"/>
</svg>
