<svg width="32" height="37" viewBox="0 0 32 37" fill="none" xmlns="http://www.w3.org/2000/svg">
<path d="M5.49503 14.5475V1.80379C5.49503 1.45968 5.63372 1.12966 5.88061 0.886337C6.12749 0.643014 6.46233 0.506317 6.81147 0.506317C7.16062 0.506317 7.49546 0.643014 7.74234 0.886337C7.98922 1.12966 8.12792 1.45968 8.12792 1.80379V14.5475C8.89824 14.2791 9.56514 13.7818 10.0367 13.1242C10.5082 12.4665 10.7612 11.681 10.7608 10.8757V1.80379C10.7608 1.45968 10.8995 1.12966 11.1464 0.886337C11.3933 0.643014 11.7281 0.506317 12.0773 0.506317C12.4264 0.506317 12.7612 0.643014 13.0081 0.886337C13.255 1.12966 13.3937 1.45968 13.3937 1.80379V10.8757C13.394 12.3712 12.87 13.8209 11.9105 14.9795C10.9509 16.138 9.61466 16.9342 8.12792 17.2333V35.538C8.12792 35.8821 7.98922 36.2121 7.74234 36.4554C7.49546 36.6987 7.16062 36.8354 6.81147 36.8354C6.46233 36.8354 6.12749 36.6987 5.88061 36.4554C5.63372 36.2121 5.49503 35.8821 5.49503 35.538V17.2333C4.00828 16.9342 2.67205 16.138 1.71248 14.9795C0.752908 13.8209 0.228938 12.3712 0.229248 10.8757V1.80379C0.229248 1.45968 0.367945 1.12966 0.614826 0.886337C0.861708 0.643014 1.19655 0.506317 1.54569 0.506317C1.89484 0.506317 2.22968 0.643014 2.47656 0.886337C2.72344 1.12966 2.86214 1.45968 2.86214 1.80379V10.8757C2.86171 11.681 3.1147 12.4665 3.58626 13.1242C4.05781 13.7818 4.7247 14.2791 5.49503 14.5475V14.5475ZM22.6088 21.1231C18.8727 20.2979 16.0266 16.0292 16.0266 10.8861C16.0266 5.15125 19.5626 0.506317 23.9253 0.506317C28.288 0.506317 31.8239 5.15125 31.8239 10.8861C31.8239 16.0292 28.9778 20.2979 25.2417 21.1231V35.538C25.2417 35.8821 25.103 36.2121 24.8561 36.4554C24.6092 36.6987 24.2744 36.8354 23.9253 36.8354C23.5761 36.8354 23.2413 36.6987 22.9944 36.4554C22.7475 36.2121 22.6088 35.8821 22.6088 35.538V21.1231ZM23.9253 18.6709C26.6424 18.6709 29.191 15.3234 29.191 10.8861C29.191 6.44872 26.6424 3.10125 23.9253 3.10125C21.2081 3.10125 18.6595 6.44872 18.6595 10.8861C18.6595 15.3234 21.2081 18.6709 23.9253 18.6709Z" fill="#251B1B"/>
</svg>
