<svg width="40" height="31" viewBox="0 0 40 31" fill="none" xmlns="http://www.w3.org/2000/svg">
<path d="M37.5 30.9114C37.5 30.9114 40 30.9114 40 28.4114C40 25.9114 37.5 18.4114 27.5 18.4114C17.5 18.4114 15 25.9114 15 28.4114C15 30.9114 17.5 30.9114 17.5 30.9114H37.5ZM17.555 28.4114C17.5365 28.4088 17.5182 28.4055 17.5 28.4014C17.5025 27.7414 17.9175 25.8264 19.4 24.1014C20.78 22.4839 23.205 20.9114 27.5 20.9114C31.7925 20.9114 34.2175 22.4864 35.6 24.1014C37.0825 25.8264 37.495 27.7439 37.5 28.4014L37.48 28.4064C37.4684 28.4083 37.4567 28.41 37.445 28.4114H17.555ZM27.5 13.4114C28.8261 13.4114 30.0979 12.8846 31.0355 11.9469C31.9732 11.0092 32.5 9.73746 32.5 8.41138C32.5 7.08529 31.9732 5.81352 31.0355 4.87584C30.0979 3.93816 28.8261 3.41138 27.5 3.41138C26.1739 3.41138 24.9021 3.93816 23.9645 4.87584C23.0268 5.81352 22.5 7.08529 22.5 8.41138C22.5 9.73746 23.0268 11.0092 23.9645 11.9469C24.9021 12.8846 26.1739 13.4114 27.5 13.4114ZM35 8.41138C35 9.39629 34.806 10.3716 34.4291 11.2815C34.0522 12.1914 33.4997 13.0182 32.8033 13.7147C32.1069 14.4111 31.2801 14.9636 30.3701 15.3405C29.4602 15.7174 28.4849 15.9114 27.5 15.9114C26.5151 15.9114 25.5398 15.7174 24.6299 15.3405C23.7199 14.9636 22.8931 14.4111 22.1967 13.7147C21.5003 13.0182 20.9478 12.1914 20.5709 11.2815C20.194 10.3716 20 9.39629 20 8.41138C20 6.42225 20.7902 4.5146 22.1967 3.10808C23.6032 1.70155 25.5109 0.911377 27.5 0.911377C29.4891 0.911377 31.3968 1.70155 32.8033 3.10808C34.2098 4.5146 35 6.42225 35 8.41138ZM17.34 19.1114C16.34 18.7965 15.3091 18.5895 14.265 18.4939C13.6783 18.4381 13.0893 18.4106 12.5 18.4114C2.5 18.4114 0 25.9114 0 28.4114C0 30.0789 0.8325 30.9114 2.5 30.9114H13.04C12.6694 30.1309 12.4846 29.2752 12.5 28.4114C12.5 25.8864 13.4425 23.3064 15.225 21.1514C15.8325 20.4164 16.54 19.7289 17.34 19.1114ZM12.3 20.9114C10.8204 23.1346 10.0211 25.7409 10 28.4114H2.5C2.5 27.7614 2.91 25.8364 4.4 24.1014C5.7625 22.5114 8.13 20.9614 12.3 20.9139V20.9114ZM3.75 9.66138C3.75 7.67225 4.54018 5.7646 5.9467 4.35808C7.35322 2.95155 9.26088 2.16138 11.25 2.16138C13.2391 2.16138 15.1468 2.95155 16.5533 4.35808C17.9598 5.7646 18.75 7.67225 18.75 9.66138C18.75 11.6505 17.9598 13.5582 16.5533 14.9647C15.1468 16.3712 13.2391 17.1614 11.25 17.1614C9.26088 17.1614 7.35322 16.3712 5.9467 14.9647C4.54018 13.5582 3.75 11.6505 3.75 9.66138ZM11.25 4.66138C9.92392 4.66138 8.65215 5.18816 7.71447 6.12584C6.77678 7.06352 6.25 8.33529 6.25 9.66138C6.25 10.9875 6.77678 12.2592 7.71447 13.1969C8.65215 14.1346 9.92392 14.6614 11.25 14.6614C12.5761 14.6614 13.8479 14.1346 14.7855 13.1969C15.7232 12.2592 16.25 10.9875 16.25 9.66138C16.25 8.33529 15.7232 7.06352 14.7855 6.12584C13.8479 5.18816 12.5761 4.66138 11.25 4.66138Z" fill="#363232"/>
</svg>
